<?xml version="1.0" encoding="utf-8"?>
<!-- Generator: Adobe Illustrator 21.0.2, SVG Export Plug-In . SVG Version: 6.00 Build 0)  -->
<svg version="1.2" baseProfile="tiny" id="Layer_1" xmlns="http://www.w3.org/2000/svg" xmlns:xlink="http://www.w3.org/1999/xlink"
	 x="0px" y="0px" viewBox="0 0 500 500" overflow="scroll" xml:space="preserve">
<rect fill="#323B42" width="500" height="500"/>
<g>
	<path fill="#E59500" d="M96.5,245.1l22.1-52.1h31.2l-38.7,76.9v43.1H81.8v-43.1L43.2,193h31.1L96.5,245.1z"/>
	<path fill="#E59500" d="M214.4,290.6h-39.7l-6.9,22.4h-30.9l44-120h27.2l44.4,120h-31.1L214.4,290.6z M181.7,268.3h25.8l-12.9-41.6
		L181.7,268.3z"/>
	<path fill="#E59500" d="M356.6,272.4c-0.4,8.4-2.6,15.7-6.8,22.1c-4.1,6.4-9.9,11.4-17.4,14.9c-7.4,3.5-16,5.3-25.5,5.3
		c-15.8,0-28.2-5.1-37.3-15.4c-9.1-10.3-13.6-24.8-13.6-43.5v-5.9c0-11.8,2-22.1,6.1-30.9c4.1-8.8,10-15.6,17.7-20.4
		c7.7-4.8,16.6-7.2,26.7-7.2c14.6,0,26.3,3.8,35.1,11.5c8.8,7.7,13.9,18.2,15.1,31.7H328c-0.2-7.3-2.1-12.6-5.5-15.7
		c-3.5-3.2-8.7-4.8-15.8-4.8c-7.2,0-12.5,2.7-15.8,8.1c-3.4,5.4-5.1,14-5.3,25.8v8.5c0,12.8,1.6,22,4.8,27.5
		c3.2,5.5,8.8,8.2,16.6,8.2c6.6,0,11.7-1.6,15.3-4.7c3.5-3.1,5.4-8.1,5.6-14.9H356.6z"/>
	<path fill="#E59500" d="M399.2,272.3v40.7h-28.9V193h47.9c9.2,0,17.3,1.7,24.4,5.1c7.1,3.4,12.5,8.2,16.4,14.4
		c3.9,6.2,5.8,13.3,5.8,21.2c0,11.7-4.2,21.1-12.6,28.1c-8.4,7-19.9,10.5-34.5,10.5H399.2z M399.2,250h19c5.6,0,9.9-1.4,12.8-4.2
		c2.9-2.8,4.4-6.8,4.4-11.9c0-5.6-1.5-10.1-4.5-13.4c-3-3.4-7.1-5.1-12.4-5.1h-19.3V250z"/>
</g>
<g>
	<path fill="#FFFFFF" d="M92.5,242.1l22.1-52.1h31.2l-38.7,76.9v43.1H77.8v-43.1L39.2,190h31.1L92.5,242.1z"/>
	<path fill="#FFFFFF" d="M210.4,287.6h-39.7l-6.9,22.4h-30.9l44-120h27.2l44.4,120h-31.1L210.4,287.6z M177.7,265.3h25.8l-12.9-41.6
		L177.7,265.3z"/>
	<path fill="#FFFFFF" d="M352.6,269.4c-0.4,8.4-2.6,15.7-6.8,22.1c-4.1,6.4-9.9,11.4-17.4,14.9c-7.4,3.5-16,5.3-25.5,5.3
		c-15.8,0-28.2-5.1-37.3-15.4c-9.1-10.3-13.6-24.8-13.6-43.5v-5.9c0-11.8,2-22.1,6.1-30.9c4.1-8.8,10-15.6,17.7-20.4
		c7.7-4.8,16.6-7.2,26.7-7.2c14.6,0,26.3,3.8,35.1,11.5c8.8,7.7,13.9,18.2,15.1,31.7H324c-0.2-7.3-2.1-12.6-5.5-15.7
		c-3.5-3.2-8.7-4.8-15.8-4.8c-7.2,0-12.5,2.7-15.8,8.1c-3.4,5.4-5.1,14-5.3,25.8v8.5c0,12.8,1.6,22,4.8,27.5
		c3.2,5.5,8.8,8.2,16.6,8.2c6.6,0,11.7-1.6,15.3-4.7c3.5-3.1,5.4-8.1,5.6-14.9H352.6z"/>
	<path fill="#FFFFFF" d="M395.2,269.3v40.7h-28.9V190h47.9c9.2,0,17.3,1.7,24.4,5.1c7.1,3.4,12.5,8.2,16.4,14.4
		c3.9,6.2,5.8,13.3,5.8,21.2c0,11.7-4.2,21.1-12.6,28.1c-8.4,7-19.9,10.5-34.5,10.5H395.2z M395.2,247h19c5.6,0,9.9-1.4,12.8-4.2
		c2.9-2.8,4.4-6.8,4.4-11.9c0-5.6-1.5-10.1-4.5-13.4c-3-3.4-7.1-5.1-12.4-5.1h-19.3V247z"/>
</g>
</svg>
